<?xml version="1.0" encoding="UTF-8"?>
<svg width="16px" height="16px" viewBox="0 0 16 16" version="1.1" xmlns="http://www.w3.org/2000/svg" xmlns:xlink="http://www.w3.org/1999/xlink">
    <!-- Generator: Sketch 53 (72520) - https://sketchapp.com -->
    <title>delete</title>
    <desc>Created with Sketch.</desc>
    <g id="Page-1" stroke="none" stroke-width="1" fill="none" fill-rule="evenodd">
        <g id="公文处理-公文阅知-工作数据" transform="translate(-1212.000000, -34.000000)">
            <g id="头部tab" transform="translate(238.000000, 9.000000)">
                <g id="分组-4" transform="translate(155.000000, 0.000000)">
                    <g id="delete" transform="translate(819.000000, 24.000000)">
                        <g id="分组" transform="translate(0.000000, 0.343086)" fill="#C5DFFF">
                            <path d="M13.6273333,2.99205714 C10.5138095,-0.121466667 5.44828571,-0.121466667 2.33514286,2.99205714 C-0.778380952,6.1052 -0.778380952,11.1707238 2.33514286,14.2842476 C5.44828571,17.3973905 10.5138095,17.3973905 13.6273333,14.2842476 C16.7404762,11.1707238 16.7404762,6.1052 13.6273333,2.99205714" id="Fill-1"></path>
                        </g>
                        <path d="M10.8777333,6.3540381 C10.5802095,6.05651429 10.0979238,6.05651429 9.8004,6.3540381 L8.18401905,7.97041905 L6.4331619,6.21918095 C6.1356381,5.92165714 5.65297143,5.92165714 5.35544762,6.21918095 C5.05792381,6.51670476 5.05792381,6.99937143 5.35544762,7.29689524 L7.10668571,9.04775238 L5.49030476,10.6641333 C5.19278095,10.9616571 5.19278095,11.4439429 5.49030476,11.7414667 C5.78782857,12.0389905 6.27011429,12.0389905 6.5676381,11.7414667 L8.18401905,10.1250857 L9.8004,11.7414667 C10.0979238,12.0389905 10.5802095,12.0389905 10.8777333,11.7414667 C11.1752571,11.4439429 11.1752571,10.9616571 10.8777333,10.6641333 L9.26135238,9.04775238 L10.8777333,7.43137143 C11.1752571,7.13384762 11.1752571,6.6515619 10.8777333,6.3540381" id="Fill-3" fill="#0071FE"></path>
                    </g>
                </g>
            </g>
        </g>
    </g>
</svg>